<svg width="15" height="15" viewBox="0 0 15 15" fill="none" xmlns="http://www.w3.org/2000/svg">
<path d="M7.96875 1.42969V1.40625C7.96875 1.14844 7.75781 0.9375 7.5 0.9375C7.24219 0.9375 7.03125 1.14844 7.03125 1.40625V1.42676C3.62402 1.66113 0.9375 4.44727 0.9375 7.91309C0.9375 8.01855 0.943359 8.3291 0.949219 8.43457C1.02832 7.66406 1.67285 6.91992 2.46387 6.91992C3.30469 6.91992 3.98438 7.59668 3.99023 8.43457C3.99609 7.59668 4.67578 6.91992 5.5166 6.91992C6.29297 6.91992 7.00781 7.53809 7.03125 8.25293V12.1875C7.03125 12.7119 6.61816 13.125 6.09375 13.125C5.59277 13.125 5.18555 12.7031 5.18555 12.1875C5.18555 11.9297 4.97461 11.7188 4.7168 11.7188C4.45898 11.7188 4.24805 11.9297 4.24805 12.1875C4.24805 13.2217 5.07715 14.0625 6.09375 14.0625C6.60059 14.0625 7.0752 13.8662 7.42676 13.5117C7.77539 13.1602 7.96875 12.6885 7.96875 12.1875V8.22363C8.06543 7.26563 8.6543 6.92285 9.49512 6.92285C10.3359 6.92285 11.0156 7.59961 11.0215 8.4375C11.0273 7.59961 11.707 6.92285 12.5479 6.92285C13.3125 6.92285 13.9424 7.70508 14.0537 8.4375C14.0566 8.35547 14.0596 8.1709 14.0596 8.0918C14.0625 4.62305 11.373 1.67871 7.96875 1.42969Z" fill="#202124"/>
</svg>
