<svg width="11" height="14" viewBox="0 0 11 14" fill="none" xmlns="http://www.w3.org/2000/svg">
<path d="M8.19746 2.79789C7.4736 1.96206 6.65905 1.20931 5.76882 0.553508C5.69003 0.498341 5.59618 0.46875 5.5 0.46875C5.40382 0.46875 5.30997 0.498341 5.23118 0.553508C4.34095 1.20931 3.5264 1.96206 2.80254 2.79789C1.19399 4.64772 0.34375 6.59788 0.34375 8.43751C0.34375 9.80504 0.886996 11.1165 1.85398 12.0835C2.82097 13.0505 4.13248 13.5938 5.5 13.5938C6.86752 13.5938 8.17904 13.0505 9.14602 12.0835C10.113 11.1165 10.6562 9.80504 10.6562 8.43751C10.6562 6.59788 9.80601 4.64772 8.19746 2.79789ZM8.7351 8.98809C8.62124 9.65755 8.30194 10.275 7.82147 10.7549C7.34099 11.2348 6.72313 11.5533 6.05352 11.6663C5.93092 11.6869 5.80515 11.658 5.70388 11.5859C5.60261 11.5138 5.53413 11.4044 5.5135 11.2818C5.49288 11.1592 5.5218 11.0335 5.59391 10.9322C5.66602 10.8309 5.7754 10.7624 5.898 10.7418C6.37563 10.6612 6.81635 10.434 7.15908 10.0917C7.5018 9.74939 7.72955 9.30895 7.81076 8.83142C7.83154 8.70885 7.90016 8.59954 8.00152 8.52756C8.10288 8.45558 8.22869 8.42681 8.35127 8.44759C8.47384 8.46836 8.58314 8.53698 8.65513 8.63834C8.72711 8.73971 8.75588 8.86551 8.7351 8.98809Z" fill="#202124"/>
</svg>
