<svg width="15" height="15" viewBox="0 0 15 15" fill="none" xmlns="http://www.w3.org/2000/svg">
<path d="M7.03158 10.3125C7.03153 10.1238 6.97454 9.93953 6.86805 9.78374C6.76157 9.62795 6.61055 9.50793 6.43474 9.43935C6.25894 9.37079 6.06653 9.35687 5.88268 9.39942C5.69884 9.44197 5.53211 9.53901 5.40431 9.67785C5.36223 9.7236 5.34005 9.78419 5.34264 9.8463C5.34523 9.9084 5.37239 9.96694 5.41814 10.009C5.46389 10.0511 5.52448 10.0733 5.58659 10.0707C5.6487 10.0681 5.70723 10.0409 5.74931 9.99519C5.79297 9.94722 5.84622 9.90895 5.90561 9.88287C5.96501 9.85678 6.02921 9.84347 6.09408 9.84378C6.2184 9.84378 6.33763 9.89317 6.42554 9.98108C6.51344 10.069 6.56283 10.1882 6.56283 10.3125C6.56283 10.4369 6.51344 10.5561 6.42554 10.644C6.33763 10.7319 6.2184 10.7813 6.09408 10.7813H0.703454C0.641294 10.7813 0.58168 10.806 0.537726 10.8499C0.493772 10.8939 0.469079 10.9535 0.469079 11.0157C0.469079 11.0778 0.493772 11.1374 0.537726 11.1814C0.58168 11.2253 0.641294 11.25 0.703454 11.25H6.09408C6.34272 11.25 6.58118 11.1513 6.75699 10.9754C6.93281 10.7996 7.03158 10.5612 7.03158 10.3125ZM10.5472 11.9532C10.5472 11.7645 10.4902 11.5802 10.3837 11.4244C10.2772 11.2686 10.1262 11.1486 9.95037 11.08C9.77456 11.0114 9.58215 10.9975 9.39831 11.04C9.21446 11.0826 9.04774 11.1796 8.91994 11.3185C8.8991 11.3411 8.88293 11.3677 8.87235 11.3966C8.86177 11.4255 8.85698 11.4562 8.85826 11.4869C8.85955 11.5177 8.86688 11.5479 8.87983 11.5758C8.89279 11.6037 8.91111 11.6288 8.93377 11.6496C8.95642 11.6705 8.98296 11.6867 9.01186 11.6972C9.04076 11.7078 9.07147 11.7126 9.10222 11.7113C9.13297 11.71 9.16317 11.7027 9.19109 11.6897C9.21901 11.6768 9.2441 11.6585 9.26494 11.6358C9.3086 11.5878 9.36185 11.5496 9.42124 11.5235C9.48063 11.4974 9.54484 11.4841 9.6097 11.4844C9.73403 11.4844 9.85325 11.5338 9.94116 11.6217C10.0291 11.7096 10.0785 11.8288 10.0785 11.9532C10.0785 12.0775 10.0291 12.1967 9.94116 12.2846C9.85325 12.3725 9.73403 12.4219 9.6097 12.4219H4.21908C4.15692 12.4219 4.0973 12.4466 4.05335 12.4906C4.0094 12.5345 3.9847 12.5941 3.9847 12.6563C3.9847 12.7184 4.0094 12.7781 4.05335 12.822C4.0973 12.866 4.15692 12.8907 4.21908 12.8907H9.6097C9.85835 12.8907 10.0968 12.7919 10.2726 12.6161C10.4484 12.4403 10.5472 12.2018 10.5472 11.9532ZM13.5941 12.6563C13.4644 12.6564 13.3362 12.6834 13.2175 12.7355C13.0988 12.7877 12.9922 12.8638 12.9043 12.9591C12.8622 13.0048 12.84 13.0654 12.8426 13.1275C12.8439 13.1583 12.8513 13.1885 12.8642 13.2164C12.8772 13.2443 12.8955 13.2694 12.9181 13.2903C12.9408 13.3111 12.9673 13.3273 12.9962 13.3379C13.0251 13.3484 13.0558 13.3532 13.0866 13.3519C13.1487 13.3493 13.2072 13.3222 13.2493 13.2764C13.293 13.2285 13.3462 13.1902 13.4056 13.1641C13.465 13.138 13.5292 13.1247 13.5941 13.125C13.7184 13.125 13.8376 13.1744 13.9255 13.2623C14.0134 13.3502 14.0628 13.4695 14.0628 13.5938C14.0628 13.7181 14.0134 13.8373 13.9255 13.9252C13.8376 14.0131 13.7184 14.0625 13.5941 14.0625H8.20345C8.14129 14.0625 8.08168 14.0872 8.03773 14.1312C7.99377 14.1751 7.96908 14.2347 7.96908 14.2969C7.96908 14.3591 7.99377 14.4187 8.03773 14.4626C8.08168 14.5066 8.14129 14.5313 8.20345 14.5313H13.5941C13.8427 14.5313 14.0812 14.4325 14.257 14.2567C14.4328 14.0809 14.5316 13.8424 14.5316 13.5938C14.5316 13.3451 14.4328 13.1067 14.257 12.9309C14.0812 12.7551 13.8427 12.6563 13.5941 12.6563ZM1.65033 5.69066C1.27232 5.80018 0.946356 6.04209 0.73204 6.37218C0.517723 6.70226 0.429373 7.09845 0.483142 7.48832C0.544411 7.88749 0.748107 8.251 1.05658 8.51165C1.36506 8.77231 1.75746 8.91249 2.16127 8.90628H12.8394C13.2432 8.91249 13.6356 8.77231 13.9441 8.51165C14.2526 8.251 14.4562 7.88749 14.5175 7.48832C14.5713 7.09845 14.4829 6.70226 14.2686 6.37218C14.0543 6.04209 13.7283 5.80018 13.3503 5.69066C13.3134 5.68124 13.2792 5.66314 13.2507 5.63787C13.2222 5.61259 13.2001 5.58087 13.1863 5.54535C13.0231 5.08588 12.7521 4.67222 12.3961 4.33906C12.0401 4.00589 11.6094 3.76292 11.1402 3.6305C11.0972 3.61769 11.0586 3.59314 11.0288 3.5596C10.999 3.52606 10.9791 3.48487 10.9714 3.44066C10.8423 2.61297 10.4216 1.85867 9.78535 1.31379C9.14907 0.768905 8.33904 0.469308 7.50133 0.469025C6.66363 0.468742 5.85339 0.767793 5.21675 1.31224C4.5801 1.8567 4.15894 2.61071 4.02924 3.43832C4.02196 3.48295 4.00227 3.52464 3.97243 3.55862C3.9426 3.5926 3.9038 3.61751 3.86049 3.6305C3.39122 3.76292 2.96054 4.00589 2.60453 4.33906C2.24853 4.67222 1.97758 5.08588 1.81439 5.54535C1.80058 5.58087 1.77849 5.61259 1.74995 5.63787C1.72142 5.66314 1.68727 5.68124 1.65033 5.69066Z" fill="#202124"/>
</svg>
